<?xml version="1.0" encoding="UTF-8"?>
<svg width="700pt" height="700pt" version="1.1" viewBox="0 0 700 700" xmlns="http://www.w3.org/2000/svg">
 <path d="m287.38 543.23c-14.949-0.015624-29.426-5.2422-40.941-14.777-11.516-9.5352-19.348-22.781-22.152-37.465-14.383 5.6172-30.305 5.8984-44.875 0.79297-14.574-5.1094-26.832-15.27-34.559-28.641-7.7266-13.367-10.406-29.062-7.5547-44.238-14.082-11.082-22.965-27.484-24.551-45.332s4.2656-35.559 16.176-48.945c-13.031-14.609-18.758-34.332-15.578-53.652 3.1797-19.316 14.922-36.164 31.949-45.828-9.3594-15.801-11.566-34.836-6.0664-52.359s18.188-31.887 34.898-39.508c-1.3125-15.617 3.1719-31.176 12.598-43.699 9.4258-12.527 23.129-21.145 38.5-24.215 5.2891-20.254 20.121-36.664 39.738-43.969 19.621-7.3008 41.57-4.5859 58.82 7.2812 17.246 11.863 27.629 31.391 27.82 52.328v89.781h17.5c0.99609-11.023-4.2227-28.5 8.75-28.949 12.969 0.44531 7.7539 17.914 8.75 28.949h17.672v-42.156c0-2.3203 0.91797-4.5469 2.5625-6.1875 1.6406-1.6406 3.8672-2.5625 6.1875-2.5625h27.309v-24.43c-7.1094-2.7422-12.516-8.6641-14.605-15.992-2.0898-7.3281-0.62109-15.211 3.9688-21.293 4.5898-6.082 11.77-9.6602 19.387-9.6602 7.6211 0 14.797 3.5781 19.387 9.6602 4.5898 6.082 6.0625 13.965 3.9688 21.293-2.0898 7.3281-7.4961 13.25-14.605 15.992v33.18c0 2.3242-0.91797 4.5508-2.5625 6.1914-1.6406 1.6406-3.8672 2.5625-6.1875 2.5586h-27.309v33.402h25.617c6.2812 0.011718 12.301 2.5078 16.742 6.9492 4.4375 4.4375 6.9375 10.461 6.9453 16.738v9.1016h29.051v-27.301c0-2.3203 0.92188-4.5469 2.5625-6.1914 1.6406-1.6406 3.8672-2.5625 6.1875-2.5586h31.941c2.7461-7.1094 8.668-12.516 15.996-14.605 7.3281-2.0938 15.211-0.62109 21.293 3.9688s9.6562 11.766 9.6562 19.387c0 7.6172-3.5742 14.797-9.6562 19.387s-13.965 6.0586-21.293 3.9688c-7.3281-2.0898-13.25-7.5-15.996-14.605h-23.191v27.301c0.003907 2.3203-0.91797 4.5469-2.5586 6.1875s-3.8672 2.5625-6.1914 2.5625h-37.801v50.184h56.141c2.7461-7.1094 8.668-12.516 15.992-14.605 7.3281-2.0898 15.211-0.62109 21.297 3.9688 6.082 4.5898 9.6562 11.766 9.6562 19.387s-3.5742 14.797-9.6562 19.387c-6.0859 4.5898-13.969 6.0586-21.297 3.9688-7.3242-2.0898-13.246-7.4961-15.992-14.605h-56.141v50.184h37.801c2.3242 0 4.5508 0.92188 6.1914 2.5625s2.5625 3.8672 2.5586 6.1875v27.301h23.191c2.7461-7.1055 8.668-12.516 15.996-14.605 7.3281-2.0898 15.211-0.62109 21.293 3.9688s9.6562 11.77 9.6562 19.387c0 7.6211-3.5742 14.797-9.6562 19.387s-13.965 6.0625-21.293 3.9688c-7.3281-2.0898-13.25-7.4961-15.996-14.605h-31.941c-2.3203 0.003906-4.5469-0.91797-6.1875-2.5586-1.6406-1.6445-2.5625-3.8711-2.5625-6.1914v-27.301h-29.051v14.598c-0.007812 6.2773-2.5078 12.297-6.9453 16.738-4.4414 4.4414-10.461 6.9375-16.742 6.9453h-25.617v29.137h27.309c2.3203 0 4.5469 0.92188 6.1914 2.5625 1.6406 1.6406 2.5625 3.8672 2.5586 6.1875v31.953c7.1094 2.7422 12.516 8.6641 14.605 15.992 2.0938 7.3281 0.62109 15.211-3.9688 21.293-4.5898 6.082-11.766 9.6602-19.387 9.6602-7.6172 0-14.797-3.5781-19.387-9.6602-4.5898-6.082-6.0586-13.965-3.9688-21.293 2.0898-7.3281 7.5-13.25 14.605-15.992v-23.199h-27.309c-2.3203 0-4.5469-0.92188-6.1875-2.5625s-2.5625-3.8672-2.5625-6.1875v-37.887l-17.672-0.003906c-0.99609 11.023 4.2227 28.5-8.75 28.949-12.969-0.44531-7.7539-17.914-8.75-28.949h-17.5v84.289c-0.019531 17.027-6.793 33.352-18.832 45.391-12.039 12.039-28.363 18.812-45.391 18.832zm-46.742-61.84c1.0234 16.266 10.441 30.828 24.855 38.434 14.41 7.6094 31.746 7.1641 45.75-1.168 14.008-8.332 22.668-23.355 22.859-39.652v-53.516c-4.5781 1.7734-8.5117 4.8906-11.293 8.9375-2.7773 4.0469-4.2656 8.8398-4.2734 13.75 0 4.832-3.918 8.75-8.75 8.75-4.832 0-8.75-3.918-8.75-8.75 0.011719-9.5664 3.3008-18.84 9.3164-26.277 6.0195-7.4414 14.398-12.594 23.75-14.609v-126.29c-7.9727 5.8047-30.953 15.066-33.07-0.92969 0-2.3242 0.92188-4.5469 2.5625-6.1914 1.6406-1.6406 3.8672-2.5625 6.1875-2.5586 6.4492-0.007812 12.629-2.5703 17.191-7.125 4.5586-4.5586 7.1211-10.738 7.1289-17.188v-166c-0.17188-14.555-7.1094-28.199-18.77-36.914-11.66-8.7148-26.711-11.508-40.719-7.5547-14.012 3.957-25.383 14.207-30.762 27.73 10.586 1.4414 40.16 7.2227 32.508 22.695h-0.003906c-2.6875 4.0117-8.1094 5.0977-12.133 2.4258-9.4648-6.2148-20.852-8.8047-32.074-7.2969-11.219 1.5117-21.52 7.0195-29 15.516-7.4844 8.4961-11.648 19.41-11.73 30.73 18.996-2.5352 38.141 3.457 52.297 16.371 1.7344 1.5703 2.7695 3.7656 2.8711 6.1055 0.10156 2.3359-0.73438 4.6172-2.3242 6.332-1.5898 1.7148-3.8008 2.7227-6.1367 2.7969-2.3398 0.074218-4.6094-0.78906-6.3047-2.3984-9.0117-8.0586-20.781-12.336-32.863-11.938-12.082 0.39453-23.547 5.4336-32.012 14.066-8.4609 8.6328-13.273 20.195-13.43 32.281-0.039062 11.359 4.1406 22.328 11.723 30.785 2.0664 2.2031 2.8516 5.3164 2.082 8.2383s-2.9922 5.2383-5.875 6.1367c-15.23 5.1602-26.734 17.789-30.453 33.434-3.7188 15.641 0.86719 32.098 12.145 43.559 11.277 11.465 27.656 16.32 43.359 12.855 15.699-3.4609 28.516-14.758 33.926-29.898 1.7695-4.4219 6.75-6.6172 11.211-4.9375 4.457 1.6797 6.75 6.6172 5.1602 11.109-6.8555 18.02-21.348 32.07-39.57 38.367-18.223 6.2969-38.297 4.1953-54.816-5.7422-9.1914 9.9961-13.605 23.484-12.105 36.98 1.5 13.496 8.7656 25.688 19.926 33.426 11.16 7.7383 25.121 10.27 38.289 6.9414 2.2383-0.60938 4.6328-0.30078 6.6406 0.85938 2.0117 1.1602 3.4805 3.0742 4.0742 5.3164 2.8086 18.844-35.594 12.812-45.598 8.7148-0.72266 12.57 3.6484 24.902 12.133 34.211 8.4805 9.3086 20.352 14.805 32.938 15.25 12.582 0.44531 24.812-4.2031 33.93-12.887 9.1172-8.6836 14.352-20.676 14.516-33.266 0-2.3203 0.92188-4.5469 2.5625-6.1875 1.6445-1.6406 3.8672-2.5625 6.1875-2.5625 4.8359 0 8.75 3.918 8.75 8.75-0.003906 19.441-8.8359 37.832-24.012 49.988zm208.45-0.96484c-3.6719 0.10156-6.5977 3.1133-6.5977 6.7891 0 3.6758 2.9258 6.6836 6.5977 6.7891 3.6758-0.10547 6.6016-3.1133 6.6016-6.7891 0-3.6758-2.9258-6.6875-6.6016-6.7891zm114.4-103.48h0.003906c-3.6758 0.10938-6.6016 3.1172-6.6016 6.793s2.9258 6.6875 6.6016 6.793c3.6719-0.10547 6.5977-3.1172 6.5977-6.793s-2.9258-6.6836-6.5977-6.793zm-185.63 0.27344h69.539c3.418 0 6.1836-2.7695 6.1875-6.1875v-176.56c-0.003906-3.4141-2.7695-6.1836-6.1875-6.1875-21.602-0.14062-73.633 0.10156-95.789 0v13.262h75.59c7.2422 0.011719 13.109 5.875 13.125 13.117v136.18c-0.015624 7.2422-5.8828 13.109-13.125 13.117h-75.59v13.262zm-26.25-30.762h71.215v-127.41h-71.215zm198.28-73.246c-3.6758 0.10547-6.6016 3.1172-6.6016 6.793s2.9258 6.6875 6.6016 6.793c3.6758-0.10547 6.6016-3.1172 6.6016-6.793s-2.9258-6.6875-6.6016-6.793zm13.602-103.73h0.003906c-3.6758 0.10547-6.6016 3.1172-6.6016 6.793s2.9258 6.6836 6.6016 6.793c3.6719-0.10938 6.5977-3.1172 6.5977-6.793s-2.9258-6.6875-6.5977-6.793zm-114.4-103.47v-0.003906c-3.6758 0.10156-6.6016 3.1133-6.6016 6.7891 0 3.6797 2.9258 6.6875 6.6016 6.7891 3.6758-0.10156 6.6055-3.1094 6.6055-6.7891 0-3.6758-2.9297-6.6875-6.6055-6.7891zm-225.93 344.51c-2.3203 0-4.5469-0.92188-6.1875-2.5625s-2.5625-3.8672-2.5625-6.1875c0.019532-17.035 6.7969-33.371 18.844-45.418 12.043-12.043 28.379-18.82 45.414-18.84 9.875 0.76563 31.973 0.91797 28.25 15.652-5.5859 11.855-18.766 0.11719-28.25 1.8477-12.398 0.011719-24.281 4.9453-33.047 13.711s-13.699 20.648-13.711 33.047c0 2.3203-0.92188 4.5469-2.5625 6.1875s-3.8672 2.5625-6.1875 2.5625zm-4.4453-142.71c-4.2617-0.10156-7.8359-3.2461-8.4766-7.4609-0.63672-4.2148 1.8398-8.2812 5.8789-9.6445 2.1328-0.66016 4.2109-1.4766 6.2227-2.4453 13.352-6.4805 22.871-18.875 25.684-33.453-18.984-0.51172-36.754-9.4375-48.5-24.359-1.4492-1.8164-2.1133-4.1367-1.8477-6.4453 0.26172-2.3086 1.4336-4.4141 3.2539-5.8594 1.8203-1.4414 4.1406-2.1016 6.4453-1.832 2.3086 0.26562 4.4141 1.4414 5.8555 3.2656 8.1562 10.059 20.109 16.301 33.023 17.25 12.918 0.95313 25.652-3.4727 35.195-12.23 9.543-8.7539 15.047-21.062 15.211-34.012 0.10547-4.7578 3.9922-8.5625 8.75-8.5586 4.7617 0 8.6484 3.8008 8.75 8.5586-0.015625 14.234-4.75 28.062-13.465 39.32-8.7148 11.258-20.918 19.305-34.695 22.887-1.3125 12.906-6.5469 25.098-15.004 34.934-8.4531 9.8398-19.719 16.848-32.281 20.086z"/>
</svg>
